<?xml version="1.0" encoding="UTF-8" standalone="no"?>
<svg
   xmlns:dc="http://purl.org/dc/elements/1.1/"
   xmlns:cc="http://creativecommons.org/ns#"
   xmlns:rdf="http://www.w3.org/1999/02/22-rdf-syntax-ns#"
   xmlns:svg="http://www.w3.org/2000/svg"
   xmlns="http://www.w3.org/2000/svg"
   id="svg46"
   version="1.1"
   viewBox="0 0 210 297"
   height="297mm"
   width="210mm">
  <defs
     id="defs40" />
  <metadata
     id="metadata43">
    <rdf:RDF>
      <cc:Work
         rdf:about="">
        <dc:format>image/svg+xml</dc:format>
        <dc:type
           rdf:resource="http://purl.org/dc/dcmitype/StillImage" />
        <dc:title></dc:title>
      </cc:Work>
    </rdf:RDF>
  </metadata>
  <g
     id="layer1">
    <path
       id="path20"
       d="m 106.44204,193.47155 c -0.34925,-0.0669 -1.6637,-0.29186 -2.921,-0.49994 -10.8954,-1.80318 -26.2341,-6.65705 -33.401,-10.56961 -3.42401,-1.86924 -6.02065,-3.91079 -6.73766,-5.29733 -0.3356,-0.64899 -0.29611,-0.72846 1.05548,-2.12391 1.70117,-1.75636 4.03097,-3.50314 5.99968,-4.49828 0.80327,-0.40604 1.4605,-0.8541 1.4605,-0.9957 0,-1.33797 4.24467,-30.75926 4.74399,-32.88224 2.17975,-9.26775 6.55313,-16.38953 12.57633,-20.47982 3.45455,-2.34594 10.10079,-4.82046 11.50906,-4.28504 2.12428,0.80765 11.46694,0.89729 15.11727,0.14505 1.51046,-0.31127 1.78337,-0.29189 3.91215,0.27781 7.75723,2.07597 13.64019,6.94216 17.47939,14.45839 2.82547,5.53159 3.7595,9.25348 5.50813,21.94861 0.6831,4.95935 1.61473,11.72853 2.07028,15.04262 l 0.82827,6.02562 2.06184,1.1572 c 2.0807,1.1678 4.37427,3.00354 5.94784,4.76057 l 0.85556,0.95531 -0.91739,1.11956 c -2.71451,3.3127 -9.1108,6.61966 -19.46272,10.06247 -11.39159,3.78859 -24.02505,6.37983 -27.686,5.67866 z m 13.66379,-18.76645 c 7.09202,-0.7697 14.74021,-2.3609 20.94371,-4.35731 l 3.4925,-1.12396 v -1.16276 c 0,-1.37786 0.52315,-1.40563 -5.207,0.27641 -12.30478,3.61197 -24.57649,5.15417 -35.64187,4.47916 -9.41577,-0.57437 -17.60747,-2.05186 -26.88848,-4.84971 -1.84159,-0.55517 -3.47036,-1.00939 -3.6195,-1.00939 -0.15128,0 -0.27115,0.496 -0.27115,1.12199 0,1.08843 0.0323,1.13386 1.0795,1.51871 7.41069,2.7234 18.92481,4.93963 29.0195,5.58564 3.08428,0.19738 13.56857,-0.0963 17.09279,-0.47878 z m -8.84426,-9.13807 2.39651,-2.40651 3.69448,-0.07 3.69448,-0.07 0.0699,-3.68299 0.0698,-3.683 2.53387,-2.54456 2.53386,-2.54455 -2.54021,-2.53068 -2.54021,-2.53068 v -3.62428 -3.62426 h -3.61518 -3.61516 l -2.60784,-2.59896 -2.60783,-2.59897 -2.60784,2.59897 -2.60783,2.59896 H 99.8972 96.28204 v 3.62426 3.62427 l -2.54022,2.53068 -2.54021,2.53069 2.53387,2.54455 2.53387,2.54455 0.0699,3.683 0.0698,3.683 3.69448,0.07 3.69448,0.07 2.3965,2.40651 c 1.31808,1.32357 2.45817,2.4065 2.53354,2.4065 0.0754,0 1.21546,-1.08293 2.53353,-2.4065 z m -5.24519,-6.59512 c -6.14105,-1.92019 -8.06569,-9.89891 -3.49129,-14.47332 1.34237,-1.34236 2.84151,-2.10435 4.88939,-2.4852 3.89992,-0.72526 8.19552,1.81707 9.59109,5.67646 0.60504,1.67322 0.53567,4.36201 -0.15958,6.18482 -0.78765,2.06506 -2.87061,4.15769 -4.89085,4.91356 -1.68773,0.63146 -4.25294,0.7108 -5.93876,0.18368 z m 5.13829,-3.57148 c 0.76461,-0.38652 1.55463,-1.05759 2.01837,-1.7145 0.68648,-0.97242 0.762,-1.2723 0.762,-3.02601 0,-1.75871 -0.0746,-2.05294 -0.77328,-3.048 -2.19373,-3.12452 -6.66783,-3.13294 -8.85574,-0.0167 -0.96835,1.37924 -1.215,3.78794 -0.53468,5.2216 1.35307,2.85138 4.60353,3.98878 7.38333,2.58357 z m -8.64963,-44.08321 c -2.19894,-0.34018 -2.39912,-0.44354 -1.778,-0.91805 0.78824,-0.60217 2.41868,-1.25828 3.93489,-1.58345 1.4942,-0.32045 1.77025,-0.56389 1.77622,-1.56643 0.006,-1.07847 0.73626,-2.88858 1.5372,-3.8125 l 0.75269,-0.86825 0.75783,0.87441 c 0.7563,0.87264 1.34629,2.35465 1.64251,4.12584 0.15091,0.90235 0.20833,0.94699 1.58575,1.23294 1.54001,0.3197 3.20501,0.97997 4.00598,1.58858 0.47685,0.36234 0.45424,0.39296 -0.508,0.68787 -1.26352,0.38726 -11.58541,0.56726 -13.70707,0.23904 z"
       style="fill:#000000;stroke-width:0.25400001" />
  </g>
</svg>
